<svg xmlns="http://www.w3.org/2000/svg" xmlns:xlink="http://www.w3.org/1999/xlink" id="Layer_1" x="0" y="0" version="1.1" viewBox="0 0 100 100" xml:space="preserve" style="enable-background:new 0 0 100 100"><style type="text/css">.st0{fill:#f58536}.st1{fill:#9d5025}</style><g id="Layer_1-2"><polygon points="36.2 64.6 31.4 65.6 31.4 34.3 36.2 35.4" class="st0"/><polygon points="42.3 66.4 36.2 68.1 36.2 31.9 42.3 33.6" class="st0"/><polygon points="50 68.3 42.3 71.1 42.3 28.9 50 31.7" class="st0"/><polygon points="70.7 64.6 50 75 50 25 70.7 35.4" class="st0"/><polygon points="45.9 27.1 50 25 50 75 45.9 72.9" class="st1"/><polygon points="39.1 30.5 42.3 28.9 42.3 71.1 39.1 69.5" class="st1"/><polygon points="33.7 33.2 36.2 31.9 36.2 68.1 33.7 66.8" class="st1"/><polygon points="31.4 34.3 29.3 35.4 29.3 64.6 31.4 65.7" class="st1"/></g></svg>